# xmcd
#
# Track frame offsets:
#	150
#	13645
#	28891
#	36320
#	46992
#	57682
#	71029
#	81270
#	100160
#	114082
#	129246
#	147345
#
# Disc length: 2097 seconds
#
# Revision: 0
# Processed by: cddbd v1.5.2PL0 Copyright (c) Steve Scherf et al.
# Submitted via: audiograbber 1.83.01
#
DISCID=a6082f0c
DTITLE=Disc 3 - Best of Country
DYEAR=1900
DGENRE=Country
TTITLE0=T. Graham Brown - I Wish I Could Hurt That Way Again
TTITLE1=J. Dalton - Taking It Easy Lacy
TTITLE2=Merle Haggard - I'm A Lonesome Fugitive
TTITLE3=Ferlin Husky - Wings Of A Dove
TTITLE4=Waylon Jennings - Sally Was a Good Old Girl
TTITLE5=Kenny Rogers - But You Know That I Love You
TTITLE6=Faron Young - Live Fast, Love Hard, Die Young
TTITLE7=Alabama - I Wanna Be With You Tonight
TTITLE8=Moe Bandy - I Cheated Me Right Out of You
TTITLE9=Moe Bandy - Hank Williams You Wrote My Life
TTITLE10=Janie Fricke - Tell Me A Lie
TTITLE11=Willie Nelson - Healing Hands of Time
EXTD=
EXTT0=
EXTT1=
EXTT2=
EXTT3=
EXTT4=
EXTT5=
EXTT6=
EXTT7=
EXTT8=
EXTT9=
EXTT10=
EXTT11=
PLAYORDER=
